<svg width="601" height="471" viewBox="0 0 601 471" fill="none" xmlns="http://www.w3.org/2000/svg">
<g clip-path="url(#clip0_834_6528)">
<path opacity="0.69" d="M558.48 335.166C532.898 383.291 488.283 415.712 444.118 445.126C397.043 476.467 320.198 466.546 266.856 465.416C213.748 464.286 160.057 456.227 111.786 433.078C89.146 422.227 67.9192 408.101 50.4823 390.038C18.5174 356.885 0.66493 310.987 0.0166557 264.955C-0.631618 218.924 15.5254 173.141 43.4676 136.549C60.4391 114.314 81.4332 95.536 102.311 76.924C121.31 59.9904 140.493 42.9903 162.318 29.912C204.755 4.4701 256.284 -4.88576 305.221 2.40948C354.157 9.70473 400.268 33.3353 435.923 67.6346C455.005 85.9973 471.146 107.252 490.627 125.166C515.012 147.583 544.866 165.082 562.636 193.033C589.298 234.976 581.818 291.278 558.48 335.166Z" fill="#E8E8E8"/>
<path d="M298.189 56.0354H170.43V124.883H298.189V56.0354Z" fill="white"/>
<path d="M298.189 131.248H170.43V217.91H298.189V131.248Z" fill="white"/>
<path d="M449.37 56.0354H306.168V124.883H449.37V56.0354Z" fill="white"/>
<path d="M449.37 131.248H306.168V217.91H449.37V131.248Z" fill="white"/>
<path d="M182.265 18.7283V68.2827" stroke="black" stroke-miterlimit="10"/>
<path d="M212.468 91.365H152.062C152.062 76.0932 165.543 65.1587 182.265 63.6963C198.937 63.6963 212.468 76.0766 212.468 91.365Z" fill="#BBE3F2"/>
<path d="M271.727 0.44873V68.2828" stroke="black" stroke-miterlimit="10"/>
<path d="M301.93 91.365H241.524C241.524 76.0932 255.004 65.1587 271.727 63.6963C288.399 63.6963 301.93 76.0766 301.93 91.365Z" fill="#BBE3F2"/>
<path d="M361.188 18.7283V68.2827" stroke="black" stroke-miterlimit="10"/>
<path d="M391.391 91.365H330.985C330.985 76.0932 344.466 65.1587 361.188 63.6963C377.861 63.6963 391.391 76.0766 391.391 91.365Z" fill="#BBE3F2"/>
<path d="M468.27 310.322H101.114C96.5596 310.322 92.8694 314.011 92.8694 318.564C92.8694 323.118 96.5596 326.807 101.114 326.807H468.287C472.841 326.807 476.531 323.118 476.531 318.564C476.531 314.011 472.841 310.322 468.287 310.322H468.27Z" fill="#D9D9D9"/>
<path d="M498.257 288.852H131.084C126.531 288.852 122.84 292.542 122.84 297.094C122.84 301.646 126.531 305.337 131.084 305.337H498.257C502.81 305.337 506.502 301.646 506.502 297.094C506.502 292.542 502.81 288.852 498.257 288.852Z" fill="#D9D9D9"/>
<path d="M520.165 347.529H50.6318C46.0773 347.529 42.3871 343.84 42.3871 339.287C42.3871 334.734 46.0773 331.044 50.6318 331.044H520.165C524.72 331.044 528.41 334.734 528.41 339.287C528.41 343.84 524.72 347.529 520.165 347.529Z" fill="#D9D9D9"/>
<path d="M531.668 368.235H62.1179C57.5634 368.235 53.8732 364.546 53.8732 359.993C53.8732 355.44 57.5634 351.75 62.1179 351.75H531.651C536.206 351.75 539.896 355.44 539.896 359.993C539.896 364.546 536.206 368.235 531.651 368.235H531.668Z" fill="#D9D9D9"/>
<path d="M508.663 388.941H39.1291C34.5746 388.941 30.8844 385.252 30.8844 380.698C30.8844 376.145 34.5746 372.456 39.1291 372.456H508.663C513.217 372.456 516.907 376.145 516.907 380.698C516.907 385.252 513.217 388.941 508.663 388.941Z" fill="#D9D9D9"/>
<path d="M497.176 409.647H50.6318C46.0773 409.647 42.3871 405.958 42.3871 401.405C42.3871 396.851 46.0773 393.162 50.6318 393.162H497.176C501.731 393.162 505.421 396.851 505.421 401.405C505.421 405.958 501.731 409.647 497.176 409.647Z" fill="#D9D9D9"/>
<path d="M483.23 413.868H108.295C103.742 413.868 100.05 417.558 100.05 422.111V422.127C100.05 426.679 103.742 430.37 108.295 430.37H483.23C487.784 430.37 491.475 426.679 491.475 422.127V422.111C491.475 417.558 487.784 413.868 483.23 413.868Z" fill="#D9D9D9"/>
<path d="M72.4737 442.816C72.4737 447.369 76.1638 451.059 80.7184 451.059H465.361C469.916 451.059 473.606 447.369 473.606 442.816C473.606 438.263 469.916 434.574 465.361 434.574H80.7184C76.1638 434.574 72.4737 438.263 72.4737 442.816Z" fill="#D9D9D9"/>
<path d="M204.09 462.758C204.09 467.311 207.78 471 212.335 471H540.594C545.149 471 548.839 467.311 548.839 462.758C548.839 458.204 545.149 454.515 540.594 454.515H212.335C207.78 454.515 204.09 458.204 204.09 462.758Z" fill="#D9D9D9"/>
<path d="M478.642 183.843C481.884 179.406 485.574 175.185 488.865 171.629C495.946 163.985 504.191 157.803 512.835 152.602C517.489 169.735 512.968 188.696 504.391 203.818C498.905 213.473 491.874 221.882 484.394 229.642C480.205 233.979 475.85 237.951 471.495 242.189C471.129 242.554 470.614 242.936 470.182 242.671C469.849 242.471 469.766 241.989 469.716 241.557C467.738 225.388 465.943 208.006 472.725 193.565C474.237 190.324 476.332 187.034 478.642 183.843Z" fill="#6BB38B"/>
<path d="M415.976 203.12C416.059 214.071 416.308 225.189 419.118 235.691C421.943 246.177 427.678 256.148 436.372 261.249C441.076 264.008 446.362 265.221 451.365 267.232C456.385 269.259 460.84 272.284 463.865 277.269C465.444 262.346 458.779 246.277 451.614 234.079C443.203 219.771 430.587 208.454 415.976 203.12Z" fill="#6BB38B"/>
<path d="M497.359 235.708C509.776 226.468 524.62 222.413 539.181 218.774C534.926 232.052 530.471 245.695 521.944 256.115C513.998 265.836 502.961 272.001 491.458 274.843C489.281 275.375 475.7 281.207 474.836 280.676C472.725 279.363 476.049 270.904 476.531 268.877C479.823 254.985 486.521 243.784 497.359 235.724V235.708Z" fill="#6BB38B"/>
<path d="M510.906 244.399C503.177 251.245 495.448 258.109 487.718 264.955C483.613 268.595 479.457 272.3 476.531 277.153C471.777 285.013 470.813 294.884 469.982 304.323" stroke="#1C0C03" stroke-width="0.5" stroke-miterlimit="10"/>
<path d="M444.982 236.306C454.955 251.81 464.563 268.777 465.826 287.821C466.541 298.756 464.463 309.906 466.442 320.642" stroke="#1C0C03" stroke-width="0.5" stroke-miterlimit="10"/>
<path d="M487.469 197.769C480.188 214.038 472.825 230.606 470.049 248.537C468.602 257.959 468.453 267.547 468.32 277.103C468.137 288.984 467.971 300.866 467.788 312.748" stroke="#1C0C03" stroke-width="0.5" stroke-miterlimit="10"/>
<path d="M454.623 329.549H481.468C483.662 322.021 488.167 297.526 488.167 297.526H447.209C447.209 297.526 452.379 321.788 454.623 329.549Z" fill="#92C0D1"/>
<path d="M325.666 309.724C325.583 309.358 325.517 308.976 325.483 308.527C324.935 301.697 333.479 300.767 338.432 300.185C344.367 299.471 351.714 299.039 355.404 293.571C359.908 286.891 360.341 277.269 360.706 269.525C361.039 262.596 361.388 255.467 364.28 249.168C370.58 235.459 389.347 235.076 402.462 235.159C410.457 235.209 418.901 236.472 425.151 241.458C430.171 245.446 433.263 251.462 434.842 257.677C436.438 263.892 436.654 270.356 436.854 276.754C437.236 289.051 435.275 309.624 418.702 309.641L325.633 309.74L325.666 309.724Z" fill="#E8654B"/>
<path d="M334.676 374.484C334.061 374.866 333.412 375.231 332.781 375.58C327.329 378.671 321.876 381.779 316.424 384.87C314.662 385.867 312.817 386.897 310.773 386.93C308.728 386.964 306.517 385.617 306.418 383.657C306.334 381.895 307.88 380.516 309.293 379.402C313.183 376.311 317.388 373.287 320.347 369.282C324.453 363.715 322.774 361.256 320.231 355.672C319.4 353.844 319.715 351.734 320.297 349.806C320.646 348.676 321.079 347.529 321.926 346.682C324.137 344.422 328.293 345.07 330.62 347.214C333.745 350.088 335.357 355.439 337.352 359.129C339.23 362.618 341.624 367.404 338.798 371.044C337.701 372.456 336.238 373.52 334.676 374.467V374.484Z" fill="#110809"/>
<path d="M262.867 379.618C260.922 383.424 258.445 382.925 254.722 381.978C247.873 380.267 241.008 378.555 234.16 376.827C232.149 376.328 230.087 375.796 228.309 374.716C222.657 371.293 225.383 366.939 230.919 366.507C235.373 366.158 239.845 366.075 244.3 366.291C246.095 366.374 247.923 366.507 249.635 365.959C251.131 365.477 252.445 364.513 253.658 363.516C256.883 360.857 261.221 353.246 266.158 354.426C268.236 354.924 269.649 357.051 269.865 359.195C270.447 364.646 266.74 370.778 264.579 375.497C264.014 376.727 263.515 378.256 262.834 379.585L262.867 379.618Z" fill="#110809"/>
<path d="M316.69 357.234C319.699 359.178 323.672 359.827 329.124 358.331C334.144 356.968 338.499 352.747 339.263 347.596C340.294 340.749 336.388 332.357 334.759 325.76C332.747 317.667 330.603 309.591 328.476 301.515C325.533 290.381 320.946 274.494 312.734 265.803C306.949 259.687 293.618 258.075 289.247 266.733C286.62 271.951 287.318 278.166 288.465 283.883C291.84 300.7 298.588 316.554 304.656 332.54C307.914 341.131 309.725 352.698 316.674 357.218L316.69 357.234Z" fill="#513A43"/>
<path d="M288.681 195.925C288.249 195.692 287.817 195.476 287.368 195.293C285.141 194.396 282.714 194.213 280.37 193.864C277.478 193.432 274.386 192.551 272.657 190.191C272.109 189.444 271.71 188.48 271.993 187.582C272.441 186.103 273.854 186.22 275.034 186.469C276.979 186.884 278.974 187.134 280.919 187.466C281.733 187.599 284.642 188.646 284.842 187.217C284.892 186.768 284.659 186.336 284.36 186.004C284.06 185.671 283.711 185.389 283.445 185.023C283.396 184.957 283.362 184.89 283.346 184.824C283.329 184.641 283.528 184.508 283.695 184.458C284.609 184.226 285.44 184.907 286.188 185.289C287.102 185.754 288 186.12 288.864 186.685C290.626 187.832 292.205 189.261 293.984 190.407C295.463 191.371 297.076 192.152 298.555 193.133C299.586 193.814 300.583 194.628 301.265 195.659C301.946 196.689 302.312 198.002 302.029 199.215C301.664 200.81 300.084 202.223 298.489 201.791C296.577 201.275 294.765 200.079 293.169 198.949C291.69 197.902 290.277 196.755 288.681 195.891V195.925Z" fill="#CC9D8D"/>
<path d="M327.827 202.223C324.686 206.144 319.483 209.518 318.552 214.736C318.087 217.328 322.242 221.051 324.253 222.762C330.902 228.429 336.255 221.931 341.308 216.929C346.627 211.678 350.417 205.114 354.323 198.799C354.473 198.567 354.623 198.317 354.772 198.085C358.811 191.604 362.768 184.824 363.998 177.296C364.264 175.717 364.397 174.055 363.865 172.543C361.936 166.993 352.645 170.1 349.154 172.294C347.957 173.042 346.893 174.006 345.846 174.953C342.189 178.26 339.513 183.661 337.019 187.915C334.859 191.604 332.747 195.343 330.321 198.849C329.523 199.996 328.692 201.126 327.827 202.223Z" fill="#FFB340"/>
<path d="M347.492 240.759C347.492 240.759 347.525 240.61 347.541 240.543L347.492 240.759Z" fill="#E6AC8E"/>
<path d="M359.277 184.757L359.061 185.837L359.277 184.757Z" fill="#E6AC8E"/>
<path d="M347.691 239.929C347.658 240.145 347.608 240.344 347.541 240.543L347.708 239.746C347.708 239.746 347.708 239.862 347.691 239.929Z" fill="#E6AC8E"/>
<path d="M287.85 271.901C287.917 270.472 288.216 269.06 288.765 267.78C291.092 262.363 296.511 258.109 301.747 255.865C317.189 249.268 334.908 248.836 351.414 247.673C355.72 247.374 360.158 247.324 364.197 248.803C371.528 251.478 379.523 261.133 379.29 269.226C379.074 277.07 373.722 285.229 365.244 285.495C365.061 285.495 364.879 285.495 364.679 285.495C352.046 285.561 339.413 285.628 326.78 285.694C320.779 285.728 314.795 286.326 308.795 286.392C304.074 286.442 298.173 287.29 293.984 284.598C289.978 282.022 287.584 276.787 287.817 271.918L287.85 271.901Z" fill="#513A43"/>
<path d="M345.297 178.493C346.644 169.785 355.105 168.688 362.718 168.439C369.998 168.206 377.362 168.538 384.476 171.314C392.289 174.371 399.603 180.237 403.443 187.765C407.482 195.675 403.908 205.513 403.825 213.739C403.692 229.476 404.008 245.28 404.789 261.083C397.01 260.734 389.264 260.668 381.468 260.269C375.218 259.953 368.934 259.671 362.751 258.69C359.51 258.175 354.041 258.508 351.863 255.516C350.75 253.988 350.966 251.727 350.932 249.966C350.866 246.892 350.849 243.801 350.251 240.76C349.121 235.06 349.386 229.692 348.422 223.909C345.946 209.153 343.552 194.13 345.214 179.124C345.231 178.908 345.264 178.709 345.297 178.509V178.493Z" fill="#FFB340"/>
<path d="M299.602 280.626C309.077 274.311 347.342 265.022 352.561 262.978C362.884 258.906 374.27 257.211 385.308 258.674C394.666 259.903 404.473 261.482 406.8 272.051C408.296 278.848 405.504 286.076 399.836 290.115C397.126 292.042 394.151 292.325 392.156 295.1C389.746 298.457 386.77 299.986 382.781 300.933C371.046 303.708 358.778 302.777 346.76 303.708C342.289 304.057 337.834 304.672 333.396 305.37C327.462 306.317 321.544 307.43 315.676 308.71C312.169 309.474 308.379 309.491 304.938 310.422C304.739 310.472 304.556 310.538 304.356 310.588C303.891 310.688 303.426 310.771 302.943 310.82C296.045 311.602 290.493 307.597 288.964 300.65C287.302 293.073 291.624 285.977 299.636 280.659L299.602 280.626Z" fill="#7A5865"/>
<path d="M309.908 276.837C303.459 278.848 297.026 281.424 291.923 285.977C290.011 287.672 288.349 289.616 286.753 291.627C281.467 298.341 277.029 305.852 272.458 313.064C267.704 320.592 263.814 328.685 259.027 336.229C254.905 342.694 250.965 349.939 251.663 357.567C251.78 358.913 252.096 360.325 253.026 361.322C253.758 362.103 254.805 362.519 255.802 362.918C259.21 364.264 262.617 365.61 266.025 366.972C269.616 368.385 275.051 369.199 278.176 366.391C280.187 364.596 281.318 362.037 282.415 359.561C288.548 345.768 295.48 332.274 304.157 319.927C306.634 316.388 309.376 312.865 313.116 310.721C316.391 308.843 321.278 308.162 323.788 305.137C326.198 302.246 326.581 296.945 326.73 293.355C326.78 292.258 326.747 291.145 326.564 290.048C326.182 287.838 325.001 286.359 323.971 284.465C322.624 282.022 321.477 279.413 319.616 277.302C318.868 276.455 317.621 275.125 316.408 274.976C315.011 274.81 312.684 275.99 311.338 276.388C310.856 276.538 310.39 276.671 309.908 276.82V276.837Z" fill="#7A5865"/>
<path d="M367.522 182.265C369.001 181.999 370.43 181.467 371.744 180.719C374.769 179.008 377.113 176.299 378.925 173.324C379.44 172.41 379.905 171.546 380.271 170.549C380.321 170.4 380.387 170.217 380.321 170.067C380.254 169.918 380.088 169.835 379.939 169.785C378.808 169.353 377.561 169.336 376.365 169.203C375.168 169.054 373.905 168.738 373.073 167.857C372.143 166.877 371.777 165.082 371.378 163.819C370.879 162.257 370.563 160.628 370.497 158.983C370.414 156.989 371.976 153.25 370.447 151.605C369.134 150.176 366.125 149.926 364.38 150.259C362.003 150.707 359.726 152.02 358.479 154.081C357.216 156.175 357.166 158.684 357.415 161.027C357.631 163.055 358.629 165.63 357.781 167.591C357.182 169.004 354.656 169.436 353.226 169.652C352.944 169.702 352.561 169.851 352.644 170.134C353.359 172.543 354.39 174.936 355.886 177.047C357.349 179.141 359.327 180.935 361.72 181.833C363.565 182.531 365.593 182.63 367.538 182.265H367.522Z" fill="#C98B77"/>
<path d="M365.327 163.237C369.533 162.539 369.782 160.03 371.311 155.427L374.786 146.935C375.766 142.249 372.758 137.646 368.07 136.665C364.081 135.834 358.462 133.242 355.254 136.848C354.074 138.178 353.409 139.889 352.894 141.584C351.631 145.689 350.118 151.904 351.531 156.092C353.359 161.492 359.892 164.151 365.327 163.237Z" fill="#C98B77"/>
<path d="M371.461 132.644C371.262 132.577 371.062 132.511 370.846 132.461C369.766 132.195 368.652 132.228 367.555 132.145C364.978 131.962 362.485 131.132 359.925 130.749C355.986 130.168 350.068 131.68 350.035 136.748C350.035 138.294 350.916 139.74 352.113 140.703C353.309 141.667 354.789 142.232 356.268 142.631C359.759 143.595 363.449 143.861 367.056 143.412C365.66 143.595 370.165 149.877 370.281 150.159C371.129 152.22 370.597 155.443 370.43 157.604C371.245 157.62 372.026 157.255 372.691 156.773C378.958 152.286 379.157 141.684 375.185 135.751C374.27 134.389 372.99 133.209 371.478 132.644H371.461Z" fill="#110809"/>
<path d="M296.045 191.056C299.752 192.451 303.475 193.831 307.182 195.227C315.227 198.234 323.339 201.292 330.487 206.028C334.709 208.82 339.845 217.594 335.59 222.463C335.108 223.012 334.493 223.427 333.845 223.743C331.434 224.923 328.592 224.939 326.015 224.208C323.921 223.61 321.976 222.546 320.198 221.283C318.485 220.087 316.557 219.156 314.779 217.993C310.673 215.318 306.567 212.443 302.578 209.651C298.289 206.66 294.632 201.89 290.942 198.168C292.82 195.941 294.449 193.515 295.812 190.956C295.896 190.989 295.979 191.022 296.062 191.039L296.045 191.056Z" fill="#E8B723"/>
<path d="M367.422 150.724C367.704 152.602 368.403 154.447 370.663 153.682C374.486 152.403 375.184 146.769 371.511 144.908C370.78 144.542 369.899 144.426 369.151 144.775C368.868 144.908 368.635 145.091 368.419 145.307C367.455 146.304 367.139 147.783 367.256 149.179C367.289 149.661 367.339 150.192 367.422 150.724Z" fill="#C98B77"/>
<path d="M369.782 148.032C370.397 147.916 371.079 148.148 371.478 148.647C371.86 149.145 371.91 149.893 371.561 150.408C371.212 150.923 370.464 151.173 369.899 150.907" fill="#110809"/>
<path d="M403.642 278.881C392.871 268.977 381.75 263.576 366.358 265.288C348.738 267.248 330.171 282.753 337.851 303.891" stroke="#110809" stroke-width="2" stroke-miterlimit="10"/>
<path d="M392.139 302.711H389.829V358.364H392.139V302.711Z" fill="#110809"/>
<path d="M417.921 372.639C417.921 362.602 400.168 358.397 391.292 358.381C380.736 358.364 364.663 362.253 364.663 372.639" stroke="#110809" stroke-miterlimit="10"/>
<path d="M390.992 375.314V358.647" stroke="#110809" stroke-miterlimit="10"/>
<path d="M360.291 375.049C360.291 377.458 362.236 379.403 364.646 379.403C367.056 379.403 369.001 377.458 369.001 375.049C369.001 372.639 367.056 370.695 364.646 370.695C362.236 370.695 360.291 372.639 360.291 375.049Z" fill="#110809"/>
<path d="M386.704 375.049C386.704 377.458 388.649 379.403 391.059 379.403C393.469 379.403 395.414 377.458 395.414 375.049C395.414 372.639 393.469 370.695 391.059 370.695C388.649 370.695 386.704 372.639 386.704 375.049Z" fill="#110809"/>
<path d="M413.117 375.049C413.117 377.458 415.062 379.403 417.472 379.403C419.882 379.403 421.827 377.458 421.827 375.049C421.827 372.639 419.882 370.695 417.472 370.695C415.062 370.695 413.117 372.639 413.117 375.049Z" fill="#110809"/>
<path d="M436.887 276.754C436.455 262.679 435.441 246.509 429.872 233.431C428.26 229.659 426.215 225.953 423.107 223.278C419.999 220.602 415.66 219.073 411.704 220.137C402.977 222.48 401.548 231.952 401.548 239.38C401.548 250.331 401.215 261.798 399.703 272.649C398.689 279.928 396.627 288.469 390.028 292.74C379.706 299.421 367.389 301.082 355.371 301.947C349.287 302.379 343.186 302.645 337.119 303.342C335.474 303.525 321.278 304.821 325.317 308.727C326.697 310.056 329.456 309.724 331.251 309.724C348.339 309.707 365.427 309.69 382.515 309.674C394.583 309.674 406.651 309.657 418.735 309.641C435.308 309.624 437.269 289.051 436.887 276.754Z" fill="#E8654B"/>
<path d="M361.837 250.83C359.825 251.162 357.814 251.445 355.803 251.678C351.165 252.209 346.577 251.927 342.073 250.631C338.349 250.631 340.111 245.911 342.123 244.914C345.331 243.335 351.132 243.784 354.689 243.369C356.019 243.219 357.365 243.053 358.629 242.588C364.845 240.278 371.411 238.167 376.897 234.328C382.947 230.091 395.198 214.52 403.293 223.676C404.224 224.74 404.673 226.136 405.022 227.499C405.454 229.243 405.77 231.088 405.404 232.849C404.789 235.741 402.462 237.951 400.018 239.613C389.496 246.709 374.154 248.819 361.853 250.83H361.837Z" fill="#C98B77"/>
<path d="M387.917 130.218C389.114 126.877 388.349 122.972 386.172 120.164C384.011 117.355 380.554 115.66 377.013 115.378C375.6 115.262 374.154 115.378 372.807 115.777C370.331 116.508 368.153 118.219 366.857 120.463C366.026 121.925 365.56 123.604 365.643 125.282C365.893 129.486 369.483 132.71 373.14 134.771C378.492 137.795 385.64 136.549 387.901 130.218H387.917Z" fill="#110809"/>
<path d="M346.394 211.645C346.394 205.729 346.378 199.813 346.361 193.881" stroke="#110809" stroke-width="0.5" stroke-miterlimit="10"/>
<path d="M352.362 169.818C352.994 169.602 353.642 169.419 354.29 169.303C354.938 171.679 355.969 173.956 357.531 175.9C359.21 177.977 361.903 180.404 364.746 180.32C367.738 180.237 371.079 178.426 373.073 176.299C375.118 174.122 376.481 171.513 378.359 169.253C379.074 169.535 379.855 169.569 380.603 169.718C381.351 169.868 382.149 170.134 382.764 170.582C382.183 170.981 381.883 172.061 381.501 172.676C380.919 173.607 380.321 174.521 379.689 175.418C378.459 177.146 377.113 178.775 375.567 180.237C372.774 182.863 368.137 185.04 364.247 184.874C360.424 184.708 356.85 182.132 354.456 179.29C352.395 176.847 350.916 174.022 350.018 170.981C350.733 170.499 351.547 170.134 352.362 169.851V169.818Z" fill="#0079AD"/>
<mask id="mask0_834_6528" style="mask-type:luminance" maskUnits="userSpaceOnUse" x="352" y="150" width="29" height="33">
<path d="M367.522 182.265C369.001 181.999 370.43 181.467 371.744 180.719C374.769 179.008 377.113 176.299 378.925 173.324C379.44 172.41 379.905 171.546 380.271 170.549C380.321 170.4 380.387 170.217 380.321 170.067C380.254 169.918 380.088 169.835 379.939 169.785C378.808 169.353 377.561 169.336 376.365 169.203C375.168 169.054 373.905 168.738 373.073 167.857C372.143 166.877 371.777 165.082 371.378 163.819C370.879 162.257 370.563 160.628 370.497 158.983C370.414 156.989 371.976 153.25 370.447 151.605C369.134 150.176 366.125 149.926 364.38 150.259C362.003 150.707 359.726 152.02 358.479 154.081C357.216 156.175 357.166 158.684 357.415 161.027C357.631 163.055 358.629 165.63 357.781 167.591C357.182 169.004 354.656 169.436 353.226 169.652C352.944 169.702 352.561 169.851 352.644 170.134C353.359 172.543 354.39 174.936 355.886 177.047C357.349 179.141 359.327 180.935 361.72 181.833C363.565 182.531 365.593 182.63 367.538 182.265H367.522Z" fill="white"/>
</mask>
<g mask="url(#mask0_834_6528)">
<path d="M353.542 160.579C355.653 161.609 357.93 162.34 360.241 162.739C361.82 163.021 363.532 163.121 364.912 162.307C362.136 164.085 359.044 165.93 355.77 165.514" fill="#110809"/>
</g>
<path d="M411.455 210.482C411.305 209.435 411.106 208.388 410.889 207.358C408.612 196.756 405.205 185.755 397.193 178.443C391.907 173.623 382.847 171.28 381.933 181.085C381.7 183.611 382.382 186.12 383.08 188.546C385.972 198.667 392.106 211.313 388.316 221.998C388.266 222.114 388.216 222.231 388.167 222.364C390.394 223.028 392.555 223.876 394.566 224.89C399.004 227.116 402.961 230.29 405.404 234.478C411.704 228.08 412.718 218.94 411.455 210.482Z" fill="#FFB340"/>
<path d="M405.986 231.57C405.304 230.822 404.606 230.124 403.842 229.459C402.146 227.997 400.367 226.601 398.539 225.338C396.86 224.175 395.098 223.111 393.303 222.164C392.422 221.699 391.541 221.267 390.643 220.851C390.195 220.652 389.696 220.436 389.197 220.27C387.917 221.732 386.571 223.145 385.108 224.408C385.158 224.474 385.191 224.541 385.241 224.607C386.072 225.704 387.103 226.202 388.316 226.734C388.516 226.817 388.715 226.9 388.915 226.983C389.014 227.033 389.081 227.05 389.131 227.083C389.147 227.083 389.181 227.116 389.247 227.133C389.696 227.332 390.145 227.548 390.593 227.764C392.372 228.645 394.101 229.609 395.78 230.689C397.409 231.719 398.988 232.85 400.5 234.063C401.697 235.026 403.243 236.472 404.889 237.104C405.77 236.073 406.717 235.076 407.698 234.146C407.349 233.182 406.601 232.268 405.986 231.57Z" fill="#0079AD"/>
<path d="M390.062 220.436C391.441 217.81 391.607 214.686 391.076 211.778C390.544 208.87 389.38 206.111 388.233 203.386" stroke="#110809" stroke-width="0.5" stroke-miterlimit="10"/>
<path d="M353.708 153.582C354.074 154.928 355.437 155.809 356.8 156.058C358.18 156.308 359.576 156.025 360.939 155.743" stroke="#110809" stroke-width="0.5" stroke-miterlimit="10"/>
<path d="M65.5588 336.479C66.2902 336.861 124.801 369.498 124.801 369.498" stroke="black" stroke-miterlimit="10"/>
<path d="M120.928 332.341L58.2782 370.994" stroke="black" stroke-miterlimit="10"/>
<path d="M55.602 384.504L72.6067 302.312L117.77 306.815L126.497 385.634" stroke="black" stroke-miterlimit="10"/>
<path d="M159.309 252.658C159.359 247.556 159.209 242.92 160.539 237.835C161.453 234.312 163.199 230.839 166.191 228.761C169.665 226.352 174.618 226.319 178.126 228.678C181.733 231.105 183.528 235.558 183.777 239.895C184.143 246.194 182.182 253.073 180.403 259.056C178.458 265.57 176.198 272.001 173.654 278.316C173.638 278.382 159.559 276.588 158.328 276.372C159.741 268.794 159.243 260.335 159.326 252.658H159.309Z" fill="#C98B77"/>
<path d="M172.59 325.029C176.63 323.882 178.658 323.533 182.581 321.988C182.581 339.785 185.091 369.814 185.007 374.932C179.987 375.497 176.048 377.358 170.961 377.408C166.972 371.243 165.343 353.778 163.099 347.014C162.584 345.452 160.307 337.658 157.763 328.784C162.733 327.671 167.67 326.408 172.59 325.029Z" fill="#D98C73"/>
<path d="M100.516 314.476C93.3681 313.097 86.3368 311.219 79.4551 308.826C63.481 303.243 50.5986 286.475 45.5121 270.805C40.1597 254.336 38.2149 233.481 41.0573 216.448C42.8858 205.48 49.1691 194.296 59.7243 190.756C67.3041 188.197 75.6652 190.009 83.2118 192.651C93.4013 196.207 99.1693 201.209 103.624 210.897C108.395 221.283 111.902 232.285 117.853 242.106C124.286 252.691 133.495 261.549 144.266 267.647C154.472 273.447 165.858 275.142 169.449 288.187C170.878 293.422 170.313 299.155 167.953 304.057C163.265 313.762 154.123 315.39 144.199 316.421C129.655 317.916 114.877 317.252 100.516 314.493V314.476Z" fill="#513A43"/>
<path d="M163.299 289.317C169.083 290.646 175.034 291.261 180.902 292.125C183.993 292.574 190.327 294.336 193.236 292.175C196.926 289.45 190.875 287.838 188.149 286.309C183.445 283.683 178.658 281.174 173.92 278.598C169.532 276.239 163.897 271.187 159.426 276.072C156.55 279.213 156.217 284.215 155.885 288.237C158.395 288.32 160.822 288.719 163.299 289.3V289.317Z" fill="black"/>
<path d="M69.598 268.445C72.2742 259.986 84.392 258.059 91.8887 258.657C107.464 259.903 123.089 260.286 138.564 261.549C151.181 262.579 164.911 265.304 173.588 275.358C180.686 283.584 181.816 294.884 183.827 305.187C186.171 317.185 187.883 329.283 188.964 341.447C189.23 344.505 189.23 348.128 186.769 349.972C185.19 351.169 183.046 351.202 181.051 351.202C176.979 351.185 172.906 351.169 168.834 351.152C165.293 351.152 161.304 350.919 158.96 348.277C157.348 346.449 156.932 343.873 156.6 341.447C156.151 338.273 149.17 299.022 149.585 298.972C136.802 300.999 123.77 301.498 110.855 300.468C101.729 299.736 92.4538 298.158 84.4917 293.638C76.7955 289.267 66.4896 278.216 69.5814 268.445H69.598Z" fill="#E8654B"/>
<path d="M65.8746 265.138C66.4065 266.7 66.7224 267.764 67.1878 268.511C69.5315 268.478 71.8753 268.511 74.2191 268.545C80.3527 268.644 86.5529 268.727 92.5868 267.464C97.8395 266.368 103.059 264.756 108.129 262.978C115.941 260.236 123.272 258.308 122.69 248.736C121.975 236.406 120.479 220.868 123.953 208.853C125.366 204.001 126.114 200.378 128.225 195.792C128.807 194.529 129.389 193.232 129.472 191.837C129.538 190.839 129.339 189.859 129.09 188.895C125.2 173.108 112.002 172.925 98.0057 171.679C95.8448 171.48 93.634 171.297 91.4898 171.679C88.8468 172.128 86.4199 173.407 84.1094 174.787C71.8421 182.148 70.346 194.013 66.6559 206.793C64.8108 213.174 61.9185 219.206 60.0734 225.587C56.1173 239.214 61.453 252.276 65.858 265.138H65.8746Z" fill="#39608B"/>
<path d="M188.448 372.04C189.961 372.888 192.205 373.386 193.817 373.868C197.99 375.131 202.311 375.829 206.434 377.292C208.595 378.056 210.656 380.748 208.312 382.659C207.281 383.49 205.902 383.706 204.605 383.856C194.166 385.069 183.611 384.471 173.122 383.889C172.557 383.856 171.926 383.806 171.527 383.407C171.294 383.174 171.178 382.859 171.061 382.56C169.781 379.219 168.9 375.48 168.102 372.074C169.515 371.725 170.995 372.323 172.408 372.423C174.236 372.556 176.247 372.705 177.926 371.791C180.187 370.545 182.265 368.966 184.06 367.138C184.226 366.972 184.409 366.789 184.625 366.706C185.356 366.407 186.071 367.205 186.321 367.952C186.803 369.415 186.819 371.043 188.216 371.907C188.299 371.957 188.398 372.024 188.498 372.074L188.448 372.04Z" fill="black"/>
<path d="M158.877 249.268C158.744 247.54 158.877 245.928 160.506 245.313C162.733 244.465 163.498 245.662 164.928 243.352C167.687 238.898 169.632 233.315 171.493 228.429C173.737 222.53 177.976 214.852 177.743 208.521C177.743 208.189 177.71 207.84 177.511 207.574C177.278 207.258 176.896 207.142 176.513 207.042C173.222 206.178 169.748 206.261 166.34 206.494C143.9 207.939 131.384 232.251 120.762 248.919C119.166 251.428 109.841 263.526 107.397 263.327C115.975 264.008 122.574 268.345 130.503 270.738C135.373 272.201 140.725 276.554 145.28 277.169C146.759 277.369 152.76 266.334 153.641 264.889C155.935 261.1 159.176 256.779 159.11 252.193C159.11 251.295 158.944 250.265 158.877 249.285V249.268Z" fill="#E8654B"/>
<path d="M185.622 251.395C185.157 254.868 184.642 258.341 184.126 261.814C183.96 262.944 183.744 264.158 182.963 264.988C181.799 266.235 179.855 266.218 178.159 266.069C171.992 265.52 165.892 264.407 159.941 262.728C158.129 262.213 156.234 261.582 155.037 260.136C153.99 258.856 153.658 257.145 153.425 255.516C151.829 243.668 155.602 232.102 155.453 220.22C155.37 213.872 157.73 210.033 160.955 204.848C164.047 199.88 168.418 198.185 174.003 200.079C183.428 203.27 188.814 213.24 188.365 222.729C187.916 232.301 186.886 241.89 185.606 251.412L185.622 251.395Z" fill="#E8654B"/>
<path d="M97.9725 159.415C97.8728 160.562 100.283 163.187 101.014 164.002C102.178 165.315 103.541 166.328 105.17 166.976C109.442 168.655 113.897 168.804 117.254 165.298C118.834 163.636 119.914 161.542 120.828 159.432C122.208 156.208 124.12 147.301 123.255 143.911C122.457 140.82 119.149 143.512 116.141 142.482C113.514 141.584 111.52 140.77 108.727 141.268C106.234 141.701 103.84 142.947 102.261 144.958C101.846 145.506 101.463 146.054 101.114 146.603C100.283 148.364 99.5184 150.159 98.9698 152.02C98.5044 153.582 98.3548 155.161 98.1055 156.74C98.0888 157.637 98.0556 158.534 97.9725 159.415Z" fill="#C98B77"/>
<path d="M96.1939 179.922C98.6706 181.65 101.729 182.813 104.754 183.046C105.336 183.096 112.7 182.265 111.636 180.885C108.877 177.246 110.389 173.989 112.118 170.034C112.384 169.419 114.711 165.68 114.462 165.265C114.395 165.148 114.312 165.032 114.196 164.932C113.647 164.401 112.783 164.417 112.018 164.401C109.143 164.367 106.45 163.47 104.123 161.792C103.009 160.994 102.012 160.063 101.064 159.099C100.516 158.551 99.5184 156.607 98.6872 156.54C98.6041 156.54 98.5543 156.574 98.4878 156.607C97.507 160.529 97.4239 164.201 95.0635 167.724C94.1659 169.054 93.1021 170.233 91.8554 171.114C91.2071 171.729 90.4259 172.178 89.3621 172.377C91.0409 175.368 93.3847 177.944 96.2271 179.922H96.1939Z" fill="#C98B77"/>
<path d="M97.906 158.335C99.0197 158.784 100.3 158.584 101.363 158.052C103.242 157.089 104.189 155.576 104.455 153.516C104.538 152.918 104.605 152.17 105.153 151.92C105.719 151.671 106.334 152.12 106.932 152.253C108.494 152.602 109.758 150.043 110.606 149.029C110.888 148.68 111.204 148.331 111.619 148.165C112.135 147.965 112.717 148.115 113.248 148.265C115.509 148.863 117.803 149.295 120.13 149.527C121.327 149.66 122.624 149.71 123.604 149.012C124.951 148.065 125.117 146.071 124.585 144.509C123.77 142.116 121.743 140.305 119.515 139.091C113.747 135.951 106.25 135.585 100.898 139.69C100.216 140.221 99.535 140.786 99.0529 141.501C98.5709 142.216 98.3049 143.03 98.0556 143.844C97.0915 147.018 93.3348 156.474 97.8894 158.302L97.906 158.335Z" fill="#131834"/>
<path d="M169.848 202.455C165.459 196.257 159.342 191.321 152.693 187.566C146.078 183.843 138.93 181.218 131.716 178.924C125.316 176.881 118.634 173.324 111.752 173.873C111.57 173.873 111.387 173.923 111.204 173.972C111.27 174.87 111.32 175.75 111.337 176.648C114.479 181.6 116.44 187.466 117.703 193.166C118.418 196.39 118.8 199.896 120.895 202.439C124.768 207.108 130.852 208.338 136.503 208.388C142.371 208.438 145.862 213.024 147.989 218.292C149.967 223.228 150.865 228.612 153.491 233.232C156.118 237.851 161.354 241.674 166.49 240.344C170.363 239.347 173.023 235.758 174.502 232.035C177.827 223.643 176.43 213.855 172.059 205.962C171.377 204.749 170.646 203.569 169.848 202.439V202.455Z" fill="#39608B"/>
<mask id="mask1_834_6528" style="mask-type:luminance" maskUnits="userSpaceOnUse" x="80" y="156" width="42" height="46">
<path d="M120.995 187.882C121.028 187.749 121.028 187.616 121.044 187.499C120.197 184.442 115.808 184.492 113.332 183.195C112.833 182.929 112.401 182.614 112.035 182.248C111.985 182.198 111.935 182.148 111.885 182.099C111.104 181.251 110.639 180.187 110.456 178.991C109.708 174.055 112.251 169.602 114.445 165.281C114.379 165.165 114.296 165.049 114.179 164.949C113.631 164.417 112.766 164.434 112.002 164.417C109.126 164.384 106.433 163.487 104.106 161.808C102.992 161.01 101.995 160.08 101.048 159.116C100.499 158.568 99.5018 156.623 98.6706 156.557C98.5875 156.557 98.5377 156.59 98.4712 156.623C97.4904 160.545 97.4073 164.218 95.0469 167.741C94.1493 169.07 93.0855 170.25 91.8388 171.131C91.1739 171.762 90.376 172.228 89.279 172.41C88.9964 172.46 88.7138 172.477 88.4312 172.493C88.3149 172.51 88.1985 172.543 88.0822 172.56C87.9492 172.56 87.8328 172.543 87.7331 172.493C85.9545 172.41 84.1094 171.995 82.7464 173.042C82.0981 173.54 81.6991 174.272 81.3833 175.019C79.0562 180.536 80.7018 187.715 83.6273 192.684C85.8548 196.473 89.7776 199.963 94.0496 201.143C98.1055 202.273 102.344 201.325 106.217 199.913C107.913 199.298 109.525 198.683 111.071 197.969C115.725 195.825 119.748 193.449 120.961 188.181C120.978 188.098 120.995 187.998 121.011 187.915L120.995 187.882Z" fill="white"/>
</mask>
<g mask="url(#mask1_834_6528)">
<path d="M105.552 166.528C105.669 166.594 105.785 166.644 105.935 166.694C108.361 167.691 111.021 168.306 113.564 167.924C114.196 168.189 113.996 168.721 113.664 169.668C113.215 170.998 112.8 172.327 112.451 173.673C110.09 171.264 107.746 168.871 105.386 166.461C105.436 166.478 105.486 166.511 105.552 166.528Z" fill="#131834"/>
</g>
<path d="M68.6672 183.295C63.8467 188.812 61.8686 196.24 60.223 203.203C58.1119 212.193 55.9843 221.2 53.8732 230.191C53.3745 232.301 52.8759 234.428 52.8094 236.605C52.7097 240.078 53.707 244.515 54.5215 247.855C55.5687 252.159 58.1452 251.893 61.985 251.511C68.0521 250.913 76.2969 249.068 80.386 244.133C82.3308 241.79 82.9624 238.649 83.511 235.641L85.8215 223.278C88.9631 206.444 92.1214 189.061 88.5476 172.311C80.0535 173.574 73.604 177.628 68.6505 183.295H68.6672Z" fill="#39608B"/>
<path d="M88.7304 200.012C81.7324 201.84 82.3474 210.797 81.7158 216.331C80.7849 224.491 79.2224 232.6 77.0615 240.527" stroke="#131834" stroke-width="0.5" stroke-miterlimit="10"/>
<path d="M163.166 219.721C160.489 231.271 154.356 248.819 154.239 260.684" stroke="#131834" stroke-width="0.5" stroke-miterlimit="10"/>
<path d="M113.116 160.229C113.531 161.31 114.462 162.107 115.459 162.257C116.473 162.406 117.52 161.891 118.152 160.944" fill="white"/>
<path d="M42.7861 258.557C62.1844 254.154 84.0761 250.547 101.546 258.757C112.916 264.108 120.596 274.062 122.74 284.664C124.901 295.266 122.707 304.539 116.174 313.862" stroke="black" stroke-width="3" stroke-miterlimit="10"/>
<mask id="mask2_834_6528" style="mask-type:luminance" maskUnits="userSpaceOnUse" x="39" y="189" width="142" height="129">
<path d="M100.516 314.476C93.3681 313.097 86.3368 311.219 79.4551 308.826C63.481 303.243 50.5986 286.475 45.5121 270.805C40.1597 254.336 38.2149 233.481 41.0573 216.448C42.8858 205.48 49.1691 194.296 59.7243 190.756C67.3041 188.197 75.6652 190.009 83.2118 192.651C93.4013 196.207 99.1693 201.209 103.624 210.897C108.395 221.283 111.902 232.285 117.853 242.106C126.247 255.898 139.362 266.767 154.489 272.45C164.429 276.172 183.844 278.831 179.987 293.488C175.799 309.425 158.993 314.892 144.199 316.421C129.655 317.916 114.877 317.252 100.516 314.493V314.476Z" fill="white"/>
</mask>
<g mask="url(#mask2_834_6528)">
<path d="M151.962 319.445C148.92 318.681 145.878 317.9 142.87 317.052C136.271 315.174 129.871 312.848 123.704 309.84C111.902 304.09 100.366 297.493 90.3428 288.968C81.0343 281.041 72.6399 271.951 66.0076 261.665C62.7828 256.68 60.1898 251.412 57.6465 246.061C55.2363 241.009 52.7928 235.974 50.5986 230.822C46.7588 221.799 42.9357 211.662 43.3014 201.641C43.2681 201.541 43.2349 201.442 43.2016 201.342C36.3532 222.164 34.3918 244.947 40.1099 266.118C45.8114 287.29 59.6412 306.633 79.0728 316.786C92.6533 323.882 108.212 326.292 123.505 327.272C131.134 327.754 150.815 330.064 154.389 320.642C153.874 320.409 153.325 320.126 152.777 319.861C152.511 319.728 152.228 319.578 151.945 319.445H151.962Z" fill="#FFB340"/>
</g>
<path d="M150.017 301.481C149.485 297.46 149.369 292.474 148.837 288.453" stroke="#131834" stroke-width="0.5" stroke-miterlimit="10"/>
<path d="M154.505 264.573C142.022 262.678 133.977 264.34 117.903 264.34" stroke="#131834" stroke-width="0.5" stroke-miterlimit="10"/>
<path d="M126.314 206.909C124.435 205.929 118.95 204.998 117.986 203.104" stroke="#131834" stroke-width="0.5" stroke-miterlimit="10"/>
<path d="M100.699 153.084C100.699 155.128 102.361 156.789 104.405 156.789C106.45 156.789 108.112 155.128 108.112 153.084C108.112 151.04 106.45 149.378 104.405 149.378C102.361 149.378 100.699 151.04 100.699 153.084Z" fill="#C98B77"/>
<path d="M78.7404 233.082C82.497 233.896 86.1872 235.109 89.8774 236.223C95.7285 238.001 101.663 239.015 107.613 240.593C109.309 241.042 111.021 241.474 112.766 241.491C115.775 241.524 118.684 240.311 121.693 240.244C125.715 240.161 129.638 242.405 131.832 245.745C135.506 251.362 129.405 249.866 125.582 249.8C122.59 249.75 119.598 249.716 116.606 249.667C110.423 249.584 104.239 249.484 98.0556 249.401C90.9578 249.401 83.8434 249.201 76.7457 249.085C73.0222 249.035 69.249 248.836 65.5255 248.919C62.8327 248.985 59.9238 249.467 57.6465 247.606C56.4497 246.626 55.7516 245.163 55.1033 243.751C54.7376 242.97 54.3885 242.189 54.0228 241.408C53.6073 240.494 53.1917 239.58 53.0587 238.582C52.9258 237.585 53.1252 236.505 53.8067 235.791C54.2888 235.292 54.9371 235.01 55.5853 234.744C61.3533 232.45 67.6033 231.603 73.8035 232.268C75.4657 232.45 77.1114 232.733 78.757 233.082H78.7404Z" fill="#C98B77"/>
<path d="M334.559 233.365H245.812C244.399 233.365 243.186 232.351 242.92 230.972L234.11 183.843C233.778 182.032 235.157 180.37 237.002 180.37H325.749C327.162 180.37 328.376 181.384 328.642 182.763L337.452 229.892C337.784 231.703 336.404 233.365 334.559 233.365Z" fill="#92C0D1"/>
<path d="M298.971 230.307H276.181C275.782 230.307 275.433 230.025 275.367 229.626L273.123 217.594C273.023 217.079 273.422 216.614 273.937 216.614H296.727C297.126 216.614 297.475 216.896 297.541 217.295L299.785 229.327C299.885 229.842 299.486 230.307 298.971 230.307Z" fill="#6095A8"/>
<path d="M296.527 246.593H268.552V248.886H296.527V246.593Z" fill="#6095A8"/>
<path d="M282.814 247.058C281.218 238.899 283.03 230.141 287.717 223.278" stroke="#6095A8" stroke-width="2" stroke-miterlimit="10"/>
<path d="M439.015 248.736H13.3478V253.539H439.015V248.736Z" fill="#202B56"/>
<path d="M27.5267 251.76V390.304" stroke="#202B56" stroke-width="3" stroke-miterlimit="10"/>
<path d="M425.733 251.76V390.304" stroke="#202B56" stroke-width="3" stroke-miterlimit="10"/>
<path d="M431.335 442.65H503.177C521.91 442.65 545.381 444.428 563.3 438.296C583.613 431.333 598.573 413.618 600.817 392.281C602.13 379.768 596.745 367.587 595.598 355.057C594.118 339.104 599.521 322.686 595.465 307.181C592.489 295.814 584.294 285.927 573.689 280.892C551.532 270.372 533.48 283.251 518.436 298.905C510.757 306.882 503.609 315.54 498.722 325.477C488.782 345.651 500.235 372.007 479.291 386.814C477.579 388.027 475.717 389.041 473.689 389.805C467.156 392.314 459.793 391.982 453.26 394.491C448.772 396.22 444.899 399.194 441.159 402.202C438.167 404.612 435.108 407.204 433.612 410.744C431.767 415.064 430.304 421.013 428.908 425.633C427.462 430.402 427.828 435.77 430.005 440.273C430.404 441.104 430.853 441.885 431.368 442.633L431.335 442.65Z" fill="#E8654B"/>
<path d="M531.302 272.832C522.093 272.915 512.885 272.649 503.709 272.001C502.978 271.951 502.196 271.885 501.565 271.503C500.002 270.555 500.135 268.129 501.166 266.633C502.313 264.955 504.357 264.357 504.922 262.429C505.404 260.801 504.224 259.006 505.288 257.427C505.936 256.463 507.333 256.048 507.632 254.918C507.848 254.104 507.399 253.289 507.067 252.508C505.288 248.42 507.283 243.103 511.305 241.175C514.065 239.845 517.306 240.062 520.298 240.676C528.277 242.305 532.748 246.675 537.004 253.273C538.284 255.25 540.179 256.48 541.492 258.374C542.938 260.452 542.074 262.329 542.672 264.556C543.387 267.215 548.922 272.284 542.489 272.549C538.749 272.699 535.026 272.799 531.286 272.849L531.302 272.832Z" fill="black"/>
<path d="M501.249 312.133C495.896 327.854 481.385 340.085 464.979 342.677C467.007 346.167 467.854 349.341 468.935 353.229C480.222 353.379 492.007 350.221 500.035 342.311C508.064 334.385 511.256 321.107 505.537 311.386C504.839 310.206 501.698 310.837 501.249 312.133Z" fill="#CB8067"/>
<path d="M494.035 305.503C493.636 301.332 495.481 297.011 497.309 293.056C500.268 286.658 504.623 281.041 508.962 275.491C509.278 275.092 509.61 274.677 510.075 274.477C510.574 274.278 511.123 274.344 511.655 274.411C514.896 274.876 518.137 275.391 521.362 275.989C523.44 276.372 525.551 276.787 527.446 277.734C530.853 279.429 533.064 282.57 535.009 285.711C536.887 288.735 539.198 291.311 540.644 294.635C543.603 301.398 544.151 308.943 544.251 316.238C544.434 329.117 544.617 341.996 544.8 354.874C544.8 355.639 536.771 359.71 535.541 360.209C531.801 361.754 527.03 360.475 523.091 360.824C516.558 361.405 509.061 362.967 502.895 360.009C502.08 353.279 501.698 346.499 501.731 339.719C501.764 331.709 503.825 323.566 499.587 316.205C498.357 314.078 496.761 312.183 495.514 310.073C494.633 308.594 494.168 307.048 494.018 305.503H494.035Z" fill="#FFFDFB"/>
<path d="M509.427 273.979C509.51 272.234 509.66 270.422 509.46 268.694C509.294 267.265 508.264 266.667 507.166 265.769C504.989 263.991 503.559 261.449 502.645 258.79C501.133 254.32 498.623 243.651 506.335 243.684C507.067 243.684 507.798 243.834 508.496 243.668C510.042 243.319 510.89 241.723 511.987 240.577C514.73 237.752 520.597 237.436 521.944 241.64C523.373 246.077 524.071 250.996 524.221 255.649C524.354 260.385 524.504 265.121 524.637 269.857C524.786 274.943 525.202 281.357 519.883 284.033C518.054 284.963 515.86 285.179 513.882 284.631C512.702 284.315 511.571 283.717 510.774 282.803C508.729 280.526 509.261 276.787 509.41 273.979H509.427Z" fill="#E8A386"/>
<path d="M516.99 267.132C519.351 267.88 521.911 268.196 524.387 268.279C524.553 268.262 524.703 268.245 524.869 268.229C524.853 265.786 524.653 263.36 524.188 260.967C522.26 263.493 519.384 265.653 516.276 266.866C516.508 266.966 516.741 267.066 516.99 267.132Z" fill="black"/>
<path d="M534.976 367.87L542.822 368.767C524.304 363.848 504.773 365.211 485.674 366.607C467.472 367.936 443.735 362.552 428.11 373.57C398.888 394.176 407.332 415.546 427.279 439.11C433.163 446.057 438.582 442.65 446.677 442.65H538.201C542.556 442.65 552.047 444.544 556.086 442.65C563.25 439.293 569.883 434.79 574.753 428.624C578.227 424.237 580.671 419.003 581.635 413.486C582.483 408.633 582.3 401.388 580.072 396.918C578.876 394.508 576.764 392.68 575.235 390.453C572.709 386.764 571.379 380.067 566.841 378.139C563.3 376.644 559.294 376.544 555.721 375.115C552.446 373.802 549.57 371.991 546.196 370.894C542.489 369.698 538.865 368.518 534.976 367.87Z" fill="#E8654B"/>
<path d="M392.538 433.144C395.032 430.585 397.525 428.009 400.002 425.45C402.695 422.675 405.404 419.883 407.565 416.659C409.393 413.918 410.806 410.876 411.704 407.702C412.502 404.877 412.884 401.703 411.455 399.144C409.859 396.269 406.285 394.907 403.01 395.222C399.736 395.555 396.777 397.3 394.267 399.427C388.582 404.229 384.942 410.843 381.501 417.324C377.894 424.154 374.104 430.386 369.317 436.451C367.754 438.429 366.159 441.038 367.305 443.265C368.22 445.043 370.447 445.608 372.442 445.807C376.564 446.189 380.52 445.491 383.462 442.45C386.471 439.343 389.496 436.235 392.505 433.144H392.538Z" fill="#E8A386"/>
<path d="M371.345 435.521C370.796 435.255 370.214 435.122 369.616 435.271C367.937 435.704 366.724 437.914 365.078 438.711C362.684 439.875 360.025 440.672 357.432 441.254C355.886 441.603 354.323 441.869 352.761 442.135C350.351 442.55 347.957 442.949 345.547 443.364C343.884 443.647 342.206 443.929 340.693 444.694C336.504 446.788 337.069 451.69 341.075 453.535C344.017 454.881 347.907 454.897 351.065 454.399C359.111 453.152 367.173 455.296 375.234 454.399C381.285 453.734 382.997 449.231 384.626 443.963C384.875 443.165 385.175 442.351 385.407 441.57C383.462 440.805 380.919 441.104 378.808 440.34C376.847 439.625 375.035 438.545 373.472 437.149C372.824 436.568 372.109 435.903 371.345 435.521Z" fill="black"/>
<path d="M485.125 396.668C490.145 397.167 495.182 397.649 500.202 398.147C508.579 398.961 517.173 399.776 525.301 397.366C531.734 395.455 537.984 391.101 541.226 384.654C541.99 383.125 542.556 381.48 542.938 379.751C544.467 373.004 543.42 365.061 541.907 358.763C541.143 355.606 540.012 352.348 537.652 350.304C535.292 348.26 531.419 347.945 529.457 350.437C528.792 351.285 528.41 352.348 527.745 353.179C525.734 355.689 520.664 354.01 518.038 353.927C513.948 353.827 509.876 354.06 505.803 354.326C495.863 354.991 485.94 355.855 476.016 356.719C468.054 357.45 459.909 356.071 451.963 355.572C448.572 355.356 443.968 354.409 440.66 355.207C436.156 356.287 431.269 360.275 427.213 362.519C418.985 367.088 411.754 373.187 404.723 379.386C400.135 383.424 396.661 388.525 392.339 392.913C386.654 398.662 381.401 404.844 376.647 411.392C375.816 412.522 374.985 413.751 374.902 415.147C374.802 416.842 375.849 418.371 376.897 419.701C380.005 423.589 383.812 426.996 388.316 429.123C392.189 430.951 399.237 432.812 403.409 430.768C407.515 428.757 410.524 421.844 413.3 418.288C420.231 409.398 428.31 400.441 438.499 395.256C452.512 388.127 470.581 395.222 485.092 396.635L485.125 396.668Z" fill="#5484B4"/>
<path d="M549.753 299.288C559.594 304.771 561.139 316.853 561.439 327.571C561.605 333.088 561.289 338.738 559.211 343.84C553.659 357.55 536.821 360.99 523.673 360.524C506.651 359.926 489.763 356.436 474.138 350.271C474.005 347.064 474.387 344.87 475.102 341.713C485.075 344.355 495.448 345.734 505.837 345.801C513.35 345.851 520.98 345.186 527.978 342.727C532.499 341.131 536.954 338.556 538.932 334.534C542.472 327.322 536.555 319.595 535.724 312.416C535.425 309.89 535.159 307.264 536.04 304.888C536.422 303.857 537.02 302.927 537.619 301.996C538.516 300.634 539.48 299.254 540.877 298.407C542.921 297.177 545.581 297.36 547.775 298.29C548.457 298.573 549.105 298.905 549.72 299.238L549.753 299.288Z" fill="#E8A386"/>
<path d="M422.193 358.713H491.541C492.023 358.713 492.505 358.597 492.904 358.364C494.816 357.267 493.869 354.841 491.541 354.841H422.193C421.711 354.841 421.229 354.957 420.83 355.19C418.918 356.27 419.866 358.713 422.193 358.713Z" fill="black"/>
<path d="M421.711 358.896H487.519C488.333 358.896 488.799 357.998 488.35 357.317L465.91 324.397C465.727 324.115 465.411 323.965 465.079 323.965H399.27C398.456 323.965 397.99 324.862 398.439 325.544L420.879 358.464C421.062 358.746 421.378 358.896 421.711 358.896Z" fill="black"/>
<path d="M440.876 344.688C442.289 344.156 443.27 343.092 443.27 341.863C443.27 340.101 441.325 338.672 438.915 338.672C437.602 338.672 436.438 339.104 435.624 339.785C437.352 341.447 439.148 343.042 440.876 344.688Z" fill="#CB8067"/>
<path d="M509.494 251.86C511.92 251.927 514.331 251.927 516.758 251.86C517.256 251.86 517.772 251.827 518.27 251.677C520.331 251.029 520.531 248.753 521.628 247.307C522.941 249.301 522.974 253.738 523.19 256.098C523.44 258.923 522.758 265.321 524.952 267.265C527.23 269.276 536.804 269.891 538.932 267.315C540.079 265.919 538.915 260.967 538.749 259.139C538.45 255.965 538.001 252.724 536.389 249.916C531.236 240.909 520.198 231.719 509.577 238.882C508.779 239.43 508.014 240.062 507.083 240.344C506.518 240.51 505.903 240.544 505.321 240.676C500.667 241.74 499.221 247.091 498.49 251.129C502.147 251.528 505.837 251.794 509.51 251.877L509.494 251.86Z" fill="black"/>
<path d="M519.816 253.123C520.863 251.279 523.141 250.132 525.119 251.329C527.213 252.608 526.847 255.616 525.152 257.078C523.556 258.458 520.697 258.158 519.982 255.948C519.849 255.516 519.833 255.101 519.883 254.702C519.583 254.27 519.467 253.721 519.816 253.123Z" fill="#E8A386"/>
<path d="M475.318 419.518C471.894 419.684 468.469 419.883 465.045 420.183C459.36 420.664 453.376 421.097 448.24 418.654C446.428 417.79 444.799 416.61 443.27 415.314C412.884 389.406 491.392 376.627 506.568 379.569C512.535 380.732 518.237 383.008 524.138 384.471C530.039 385.933 536.439 386.515 542.107 384.288C545.814 382.842 549.005 380.266 552.728 378.837C560.092 376.012 571.429 378.306 574.221 386.365C577.562 395.97 572.626 404.628 563.566 408.583C557.632 411.159 551.116 411.408 545.132 413.801C538.616 416.41 531.335 416.693 524.371 417.407C507.998 419.086 491.641 418.753 475.335 419.534L475.318 419.518Z" fill="#E8654B"/>
<path d="M539.032 319.412C537.353 319.844 535.707 320.359 534.111 321.057C532.715 318.797 531.319 316.537 529.939 314.277C527.396 310.139 525.152 305.752 522.825 301.465C521.146 298.374 521.146 294.834 521.944 291.494C522.459 289.317 522.326 287.456 522.609 285.329C523.024 282.221 524.138 279.197 524.553 276.056C524.637 275.424 539.746 280.842 541.425 282.221C551.099 290.065 558.197 301.049 561.355 313.097C557.931 313.429 554.823 315.174 551.582 316.338C547.542 317.783 543.204 318.348 539.048 319.428L539.032 319.412Z" fill="#FFFDFB"/>
<path d="M511.139 260.635C509.859 261.848 507.615 261.848 506.319 260.635" stroke="black" stroke-width="0.5" stroke-miterlimit="10"/>
<path d="M442.123 424.437C442.971 419.634 444.483 414.882 445.547 410.112C446.029 407.935 446.412 405.725 446.212 403.515C445.996 401.305 445.115 399.078 443.42 397.632C440.527 395.173 435.956 395.671 432.798 397.782C424.57 403.266 423.074 413.652 424.62 422.659C425.151 425.717 425.883 428.741 426.498 431.782C427.096 434.84 426.847 438.296 427.562 441.254C428.659 445.824 434.61 446.605 438.433 445.193C443.004 443.514 441.94 437.133 441.608 433.361C441.342 430.353 441.608 427.378 442.123 424.42V424.437Z" fill="#E8A386"/>
<path d="M440.793 437.947C440.444 438.014 440.012 438.163 439.43 438.296C436.92 438.861 434.327 439.476 431.8 438.695C430.587 438.329 429.573 437.465 428.376 437.066C427.179 436.684 425.517 437.033 425.201 438.246C424.786 439.808 425.318 441.022 424.686 442.6C423.938 444.478 422.791 446.24 421.594 447.851C419.051 451.291 415.876 454.199 412.602 456.925C410.756 458.454 407.631 460.597 408.08 463.356C408.413 465.417 410.723 466.563 412.818 466.746C415.926 467.012 419.034 465.932 421.76 464.403C424.487 462.874 426.93 460.897 429.54 459.185C431.95 457.606 434.493 456.227 437.153 455.097C438.416 454.565 439.713 454.067 440.81 453.236C443.104 451.507 444.018 448.466 443.469 445.708C443.087 443.797 443.203 440.257 442.156 438.662C441.691 437.964 441.358 437.848 440.81 437.947H440.793Z" fill="black"/>
<path d="M417.339 389.456C417.339 393.311 417.372 397.167 417.439 401.039C417.605 411.491 413.582 424.138 427.545 426.398C433.596 427.378 439.962 426.281 445.348 423.356C458.114 416.394 448.174 389.29 448.822 377.292C449.055 372.905 449.603 359.112 457.748 360.674C447.791 358.763 440.76 351.451 429.889 353.013C424.187 353.844 418.586 357.683 417.289 363.283C415.477 371.11 417.339 381.363 417.322 389.456H417.339Z" fill="#5484B4"/>
<path d="M534.577 314.576C534.195 313.945 533.779 313.346 533.363 312.731C533.496 315.39 533.43 318.066 533.463 320.675C533.463 322.27 533.513 323.882 533.53 325.494C534.976 324.165 537.386 322.17 537.552 320.509C537.735 318.747 535.441 316.005 534.56 314.576H534.577Z" fill="black"/>
<path d="M573.506 387.628C563.516 383.424 552.296 382.211 541.641 384.172C537.004 385.036 532.349 386.482 527.645 385.983C525.102 385.701 522.675 384.87 520.182 384.305C510.641 382.144 500.7 384.188 491.126 386.216" stroke="black" stroke-width="0.5" stroke-miterlimit="10"/>
<path d="M575.352 361.538C575.917 361.006 576.482 360.491 577.047 359.993C587.536 350.77 598.54 369.199 600.318 379.303C601.349 385.169 600.85 391.218 600.318 397.15C596.861 395.854 593.37 394.525 590.362 392.265C585.99 388.974 583.846 383.873 580.288 379.918C573.989 388.791 570.199 398.031 561.555 405.16C559.677 406.706 555.903 412.289 554.557 407.503C553.477 403.664 554.191 399.51 555.222 395.671C558.729 382.51 565.81 370.495 575.335 361.522L575.352 361.538Z" fill="#6BB38B"/>
<path d="M564.314 390.337C559.062 398.463 555.006 408.201 554.075 417.956C553.127 428.076 555.106 438.662 550.584 448.167" stroke="#1C0C03" stroke-width="0.5" stroke-miterlimit="10"/>
<path d="M544.367 425.8C543.619 427.594 542.822 429.289 542.04 430.735C539.564 428.841 537.802 423.473 536.256 420.548C534.045 416.377 531.851 412.189 529.657 408.002C526.881 402.684 524.121 397.317 522.226 391.567C517.406 376.943 518.137 360.342 519.799 345.186C535.258 346.898 546.595 367.82 544.916 382.859C543.636 394.309 549.903 405.443 547.31 416.892C546.695 419.584 545.614 422.808 544.384 425.783L544.367 425.8Z" fill="#33A66E"/>
<path d="M537.187 394.043C538.566 400.258 539.946 406.473 541.326 412.688C542.04 415.912 542.755 419.169 542.639 422.476C542.522 425.268 541.824 427.993 541.359 430.735C539.962 438.928 540.76 447.486 543.619 455.263" stroke="#1C0C03" stroke-width="0.5" stroke-miterlimit="10"/>
<path d="M576.233 310.821C576.582 309.009 576.848 307.181 576.931 305.32C577.197 299.637 575.468 300.202 570.797 301.431C563.317 303.409 556.435 307.863 551.183 313.961C543.636 322.686 541.475 334.119 542.689 345.901C543.121 350.072 544.617 354.625 544.318 358.796C543.952 363.881 541.924 368.701 540.577 373.553C538.732 380.25 538.433 387.578 542.921 393.096C545.448 396.203 547.974 399.311 550.484 402.418C552.745 388.094 560.292 375.63 565.411 362.386C570.731 348.593 570.913 334.019 574.155 319.694C574.82 316.736 575.651 313.812 576.233 310.837V310.821Z" fill="#6BB38B"/>
<path d="M542.955 453.036C544.766 449.613 546.578 446.14 547.459 442.368C548.058 439.759 548.191 437.067 548.324 434.391C548.423 432.53 548.24 432.031 548.623 430.203C550.717 420.05 552.795 409.365 549.903 399.41C548.523 394.641 546.013 390.138 545.664 385.169C545.182 378.372 548.789 372.057 552.28 366.258" stroke="#1C0C03" stroke-width="0.5" stroke-miterlimit="10"/>
<path d="M533.746 470.934H561.073C563.3 463.273 567.888 438.346 567.888 438.346H526.199C526.199 438.346 531.452 463.04 533.746 470.934Z" fill="#92C0D1"/>
<path d="M580.288 379.303C582.25 374.666 582.017 370.678 583.081 365.759" stroke="#1C0C03" stroke-width="0.5" stroke-miterlimit="10"/>
<path d="M171.028 249.451H96.2105C95.2298 249.451 94.4319 248.653 94.4319 247.673C94.4319 246.692 95.2298 245.895 96.2105 245.895H171.028C172.009 245.895 172.807 246.692 172.807 247.673C172.807 248.653 172.009 249.451 171.028 249.451Z" fill="#92C0D1"/>
<path d="M173.056 249.451H106.084L111.919 210.98C112.118 209.651 113.248 208.654 114.578 208.654H176.247C177.843 208.654 179.04 210.083 178.791 211.695L173.073 249.451H173.056Z" fill="#92C0D1"/>
<path d="M148.305 227.864L151.214 230.274" stroke="white" stroke-width="0.5" stroke-miterlimit="10"/>
<path d="M144.499 227.864L147.391 230.274" stroke="white" stroke-width="0.5" stroke-miterlimit="10"/>
<path d="M140.675 227.864L143.584 230.274" stroke="white" stroke-width="0.5" stroke-miterlimit="10"/>
<path d="M366.491 246.842H303.625V248.819H366.491V246.842Z" fill="#474747"/>
<path d="M217.92 314.128C220.729 311.352 223.555 308.577 225.583 305.187C228.342 300.584 229.572 294.917 233.545 291.295C234.343 290.563 235.29 289.915 236.371 289.849C238.249 289.716 239.795 291.361 240.626 293.056C241.59 295.05 241.989 297.277 242.039 299.487C242.072 301.398 241.856 303.309 241.64 305.204C239.595 323.035 237.883 345.668 224.303 359.262C220.18 364.264 215.825 368.867 211.504 373.769C211.138 374.185 210.623 374.633 210.141 374.401C209.758 374.218 209.625 373.703 209.542 373.254C205.885 355.057 200.45 332.723 214.562 317.551C215.643 316.388 216.79 315.258 217.92 314.144V314.128Z" fill="#6BB38B"/>
<path d="M156.517 348.909C155.253 348.892 154.073 348.909 152.976 348.909C151.713 348.925 150.316 349.042 149.469 349.956C148.272 351.252 148.82 353.312 149.519 354.924C153.375 363.815 160.074 371.443 168.385 376.395C172.358 378.754 176.763 380.599 179.871 384.022C184.609 389.224 185.855 396.752 190.609 402.003C193.169 404.828 204.921 409.481 204.755 413.519C205.52 394.624 202.561 376.827 192.321 360.491C186.354 351.003 168.269 349.075 156.517 348.909Z" fill="#6BB38B"/>
<path d="M240.177 363.981C243.701 362.801 247.491 362.07 251.53 361.705C259.343 361.007 267.405 360.226 274.303 356.487C273.09 364.995 268.103 372.423 263.266 379.519C255.503 390.886 245.679 397.516 232.165 400.856C229.821 401.438 215.227 407.703 214.296 407.121C210.905 405.011 218.651 384.388 220.197 381.347C224.818 372.257 231.683 366.823 240.177 363.981Z" fill="#6BB38B"/>
<path d="M253.06 368.136C244.748 375.497 236.437 382.876 228.126 390.238C223.721 394.143 219.233 398.131 216.091 403.349C210.988 411.791 209.941 422.41 209.06 432.563" stroke="#1C0C03" stroke-width="0.5" stroke-miterlimit="10"/>
<path d="M179.173 367.139C192.621 378.522 205.669 397.034 204.572 414.832C203.724 428.542 203.093 438.579 205.237 450.128" stroke="#1C0C03" stroke-width="0.5" stroke-miterlimit="10"/>
<path d="M226.48 316.238C224.669 328.253 221.228 339.935 217.587 351.485C213.947 363.034 206.883 377.126 208.811 389.456C209.958 396.818 209.625 402.933 208.528 410.312C207.065 420.033 206.799 432.563 208.428 442.251" stroke="#1C0C03" stroke-width="0.5" stroke-miterlimit="10"/>
<path d="M192.537 459.7H221.394C223.754 451.607 228.591 425.268 228.591 425.268H184.559C184.559 425.268 190.111 451.341 192.521 459.7H192.537Z" fill="#92C0D1"/>
<path d="M386.92 239.281C386.554 238.35 385.856 237.569 384.925 237.154C383.895 236.705 382.798 236.788 381.717 237.004C381.883 236.422 382.016 235.841 382.116 235.226H352.91C354.074 242.621 360.158 248.254 367.522 248.254C369.865 248.254 372.093 247.673 374.054 246.659C374.536 246.775 375.052 246.808 375.467 246.825C376.581 246.875 377.694 246.808 378.808 246.626C380.886 246.31 383.113 245.546 384.859 244.332C386.504 243.186 387.734 241.291 386.937 239.247L386.92 239.281ZM384.643 241.674C384.094 242.455 383.18 242.953 382.349 243.369C381.335 243.884 380.254 244.249 379.157 244.548C378.276 244.798 377.379 244.964 376.481 245.064C378.276 243.618 379.756 241.74 380.77 239.58C381.169 239.48 381.551 239.347 381.95 239.264C382.831 239.065 383.911 238.849 384.576 239.596C385.125 240.211 385.091 241.009 384.626 241.657L384.643 241.674Z" fill="white"/>
<path d="M389.746 247.124H346.195V248.786H389.746V247.124Z" fill="white"/>
<path d="M213.066 248.653H199.885L196.144 220.32H216.806L213.066 248.653Z" fill="#BCDAE6"/>
<path d="M197.641 231.703L199.885 248.653H213.066L215.294 231.703H197.641Z" fill="#6BB38B"/>
<path d="M451.914 362.884C448.572 371.06 447.293 380.067 448.24 388.841" stroke="#1C0C03" stroke-width="0.5" stroke-miterlimit="10"/>
<path d="M417.588 408.733C417.372 396.07 416.94 383.407 416.325 370.745" stroke="#1C0C03" stroke-width="0.5" stroke-miterlimit="10"/>
</g>
<defs>
<clipPath id="clip0_834_6528">
<rect width="601" height="471" fill="white"/>
</clipPath>
</defs>
</svg>
